<mxfile>
    <diagram id="FUvo8Tp-ai9kOIkMcFle" name="第 1 页">
        <mxGraphModel dx="1138" dy="680" grid="1" gridSize="10" guides="1" tooltips="1" connect="1" arrows="1" fold="1" page="1" pageScale="1" pageWidth="827" pageHeight="1169" math="0" shadow="0">
            <root>
                <mxCell id="0"/>
                <mxCell id="1" parent="0"/>
                <mxCell id="2" value="&lt;font face=&quot;Verdana&quot; style=&quot;font-size: 18px&quot;&gt;Container&lt;/font&gt;" style="rounded=1;whiteSpace=wrap;html=1;" parent="1" vertex="1">
                    <mxGeometry x="130" y="260" width="120" height="60" as="geometry"/>
                </mxCell>
                <mxCell id="3" value="&lt;font face=&quot;Verdana&quot;&gt;&lt;span style=&quot;font-size: 18px&quot;&gt;Component&lt;/span&gt;&lt;/font&gt;" style="rounded=1;whiteSpace=wrap;html=1;" parent="1" vertex="1">
                    <mxGeometry x="420" y="260" width="120" height="60" as="geometry"/>
                </mxCell>
                <mxCell id="4" value="1" style="endArrow=open;html=1;endSize=12;startArrow=diamondThin;startSize=14;startFill=1;edgeStyle=orthogonalEdgeStyle;align=left;verticalAlign=bottom;entryX=0;entryY=0.5;entryDx=0;entryDy=0;" parent="1" source="2" target="3" edge="1">
                    <mxGeometry x="-1" y="3" relative="1" as="geometry">
                        <mxPoint x="330" y="350" as="sourcePoint"/>
                        <mxPoint x="490" y="350" as="targetPoint"/>
                    </mxGeometry>
                </mxCell>
                <mxCell id="5" value="" style="whiteSpace=wrap;html=1;aspect=fixed;" parent="1" vertex="1">
                    <mxGeometry x="190" y="420" width="110" height="110" as="geometry"/>
                </mxCell>
                <mxCell id="6" value="Component part" style="whiteSpace=wrap;html=1;aspect=fixed;" parent="1" vertex="1">
                    <mxGeometry x="205" y="430" width="80" height="80" as="geometry"/>
                </mxCell>
                <mxCell id="7" value="&lt;font face=&quot;Verdana&quot;&gt;&lt;span style=&quot;font-size: 18px&quot;&gt;Derived&lt;/span&gt;&lt;/font&gt;" style="rounded=1;whiteSpace=wrap;html=1;" parent="1" vertex="1">
                    <mxGeometry x="710" y="250" width="120" height="60" as="geometry"/>
                </mxCell>
                <mxCell id="8" value="&lt;font face=&quot;Verdana&quot;&gt;&lt;span style=&quot;font-size: 18px&quot;&gt;Base&lt;/span&gt;&lt;/font&gt;" style="rounded=1;whiteSpace=wrap;html=1;" parent="1" vertex="1">
                    <mxGeometry x="710" y="120" width="120" height="60" as="geometry"/>
                </mxCell>
                <mxCell id="12" value="" style="endArrow=block;html=1;rounded=0;align=center;verticalAlign=bottom;endFill=0;labelBackgroundColor=none;endSize=8;entryX=0.5;entryY=1;entryDx=0;entryDy=0;" parent="1" source="7" target="8" edge="1">
                    <mxGeometry relative="1" as="geometry">
                        <mxPoint x="500" y="350" as="sourcePoint"/>
                        <mxPoint x="660" y="350" as="targetPoint"/>
                    </mxGeometry>
                </mxCell>
                <mxCell id="13" value="" style="resizable=0;html=1;align=center;verticalAlign=top;labelBackgroundColor=none;" parent="12" connectable="0" vertex="1">
                    <mxGeometry relative="1" as="geometry"/>
                </mxCell>
                <mxCell id="14" value="" style="whiteSpace=wrap;html=1;aspect=fixed;" parent="1" vertex="1">
                    <mxGeometry x="670" y="390" width="110" height="110" as="geometry"/>
                </mxCell>
                <mxCell id="15" value="Base" style="whiteSpace=wrap;html=1;aspect=fixed;" parent="1" vertex="1">
                    <mxGeometry x="685" y="400" width="80" height="80" as="geometry"/>
                </mxCell>
                <mxCell id="16" value="derived" style="text;html=1;strokeColor=none;fillColor=none;align=center;verticalAlign=middle;whiteSpace=wrap;rounded=0;" parent="1" vertex="1">
                    <mxGeometry x="705" y="360" width="40" height="20" as="geometry"/>
                </mxCell>
                <mxCell id="17" value="&lt;font face=&quot;Verdana&quot;&gt;&lt;span style=&quot;font-size: 18px&quot;&gt;Component&lt;/span&gt;&lt;/font&gt;" style="rounded=1;whiteSpace=wrap;html=1;" vertex="1" parent="1">
                    <mxGeometry x="997" y="250" width="120" height="60" as="geometry"/>
                </mxCell>
                <mxCell id="18" value="1" style="endArrow=open;html=1;endSize=12;startArrow=diamondThin;startSize=14;startFill=1;edgeStyle=orthogonalEdgeStyle;align=left;verticalAlign=bottom;entryX=0;entryY=0.5;entryDx=0;entryDy=0;" edge="1" parent="1" target="17">
                    <mxGeometry x="-1" y="3" relative="1" as="geometry">
                        <mxPoint x="827" y="280" as="sourcePoint"/>
                        <mxPoint x="1067" y="340" as="targetPoint"/>
                    </mxGeometry>
                </mxCell>
            </root>
        </mxGraphModel>
    </diagram>
</mxfile>